<?xml version="1.0" encoding="utf-8"?>
<!-- Generator: Adobe Illustrator 27.7.0, SVG Export Plug-In . SVG Version: 6.00 Build 0)  -->
<svg version="1.1" id="Capa_1" xmlns="http://www.w3.org/2000/svg" xmlns:xlink="http://www.w3.org/1999/xlink" x="0px" y="0px"
	 viewBox="0 0 136.8 119.8" style="enable-background:new 0 0 136.8 119.8;" xml:space="preserve">
<style type="text/css">
	.st0{fill:#FFFFFF;}
</style>
<path class="st0" d="M107.9,0.7c3.2-1.3,6.9-0.6,9.3,1.8l17.1,17.1c1.6,1.6,2.5,3.8,2.5,6s-0.9,4.4-2.5,6l-17.1,17.1
	c-2.5,2.5-6.1,3.2-9.3,1.8s-5.3-4.4-5.3-7.9v-8.5h-8.6c-2.7,0-5.2,1.3-6.8,3.4L75.9,52.7L65.2,38.5l8.3-11.1
	c4.8-6.5,12.4-10.3,20.5-10.3h8.6V8.6C102.6,5.1,104.7,2,107.9,0.7L107.9,0.7z M43.8,67l10.7,14.2l-8.3,11.1
	c-4.8,6.5-12.5,10.3-20.5,10.3H8.6c-4.7,0-8.6-3.8-8.6-8.6s3.8-8.6,8.6-8.6h17.1c2.7,0,5.2-1.3,6.8-3.4L43.8,67z M117.2,117.2
	c-2.5,2.5-6.1,3.2-9.3,1.8c-3.2-1.3-5.3-4.4-5.3-7.9v-8.6h-8.5c-8.1,0-15.7-3.8-20.5-10.3l-41-54.7c-1.6-2.2-4.1-3.4-6.8-3.4H8.6
	c-4.7,0-8.6-3.8-8.6-8.5s3.8-8.5,8.6-8.5h17.1c8.1,0,15.7,3.8,20.5,10.3l41,54.7c1.6,2.2,4.1,3.4,6.8,3.4h8.6V77
	c0-3.4,2.1-6.6,5.3-7.9s6.9-0.6,9.3,1.8L134.3,88c1.6,1.6,2.5,3.8,2.5,6s-0.9,4.4-2.5,6L117.2,117.2L117.2,117.2L117.2,117.2z"/>
</svg>
